<?xml version="1.0" encoding="utf-8"?>
<svg version="1.1"
	 id="ngx-maplibre-gl" xmlns:cc="http://creativecommons.org/ns#" xmlns:dc="http://purl.org/dc/elements/1.1/" xmlns:rdf="http://www.w3.org/1999/02/22-rdf-syntax-ns#" xmlns:svg="http://www.w3.org/2000/svg"
	 xmlns="http://www.w3.org/2000/svg" xmlns:xlink="http://www.w3.org/1999/xlink" x="0px" y="0px" viewBox="0 0 512 512"
	 style="enable-background:new 0 0 512 512;" xml:space="preserve">
<style type="text/css">
	.st0{fill:#DD0031;}
	.st1{fill:#C3002F;}
</style>
	<path class="st0" d="M 474.2 99.5 L 440.9 387.9 L 256 490.3 L 71.2 387.9 L 37.9 99.5 L 256 21.7 Z M 249.955 342.708 C 250.792 343.384 251.352 343.833 251.593 344.045 C 252.701 345.011 254.122 345.539 255.592 345.534 C 257.062 345.539 258.482 345.011 259.591 344.045 C 259.834 343.831 260.809 343.699 261.232 342.706 C 290.63 273.658 360.592 262.785 360.592 180.982 C 360.592 126.544 313.493 82.252 255.592 82.252 C 197.692 82.252 150.592 126.544 150.592 180.982 C 150.592 262.788 219.426 273.088 249.955 342.708 Z M 307.505 185.297 C 307.505 214.507 284.263 238.186 255.592 238.186 C 226.92 238.186 203.679 214.507 203.679 185.297 C 203.679 156.086 226.92 132.406 255.592 132.406 C 284.263 132.406 307.505 156.086 307.505 185.297 Z M 218.875 360.806 C 214.092 360.806 210.214 366.121 210.214 372.678 L 210.214 405.861 C 210.214 412.415 214.092 417.73 218.875 417.73 L 292.104 417.73 C 296.888 417.73 300.766 412.415 300.766 405.861 L 300.766 372.678 C 300.766 366.121 296.888 360.806 292.104 360.806 Z"></path>
	<path class="st0" d="M 473.739 99.141 L 440.439 387.541 L 256.589 489.36 L 256.589 417.371 L 291.643 417.371 C 296.427 417.371 300.305 412.056 300.305 405.502 L 300.305 372.319 C 300.305 365.762 296.427 360.447 291.643 360.447 L 256.589 360.447 L 256.589 345.002 C 257.522 344.775 258.394 344.327 259.13 343.686 C 259.373 343.472 260.348 343.34 260.771 342.347 C 290.169 273.299 360.131 262.426 360.131 180.623 C 360.131 126.643 313.821 82.638 256.589 81.902 L 256.589 21.715 L 473.739 99.141 Z M 307.044 184.938 C 307.044 213.651 284.586 237.02 256.589 237.807 L 256.589 132.067 C 284.586 132.854 307.044 156.224 307.044 184.938 Z" style="fill: rgb(195, 0, 47);"></path>
</svg>
